<svg width="37" height="41" viewBox="0 0 37 41" fill="none" xmlns="http://www.w3.org/2000/svg">
<path d="M25.375 20.5C25.375 18.0837 27.3338 16.125 29.75 16.125C32.1662 16.125 34.125 18.0837 34.125 20.5C34.125 22.9163 32.1662 24.875 29.75 24.875C27.3338 24.875 25.375 22.9163 25.375 20.5Z" stroke="#141B34" stroke-width="4"/>
<path d="M6.125 6.5C6.125 4.08369 8.08376 2.125 10.5 2.125C12.9162 2.125 14.875 4.08369 14.875 6.5C14.875 8.91631 12.9162 10.875 10.5 10.875C8.08376 10.875 6.125 8.91631 6.125 6.5Z" stroke="#141B34" stroke-width="4"/>
<path d="M2.625 20.5C2.625 18.0837 4.58376 16.125 7 16.125C9.41624 16.125 11.375 18.0837 11.375 20.5C11.375 22.9163 9.41624 24.875 7 24.875C4.58376 24.875 2.625 22.9163 2.625 20.5Z" stroke="#141B34" stroke-width="4"/>
<path d="M6.125 34.5C6.125 32.0837 8.08376 30.125 10.5 30.125C12.9162 30.125 14.875 32.0837 14.875 34.5C14.875 36.9163 12.9162 38.875 10.5 38.875C8.08376 38.875 6.125 36.9163 6.125 34.5Z" stroke="#141B34" stroke-width="4"/>
<path d="M26.25 20.5L10.5 20.5M26.25 20.5L10.5 20.5" stroke="#141B34" stroke-width="4"/>
<path d="M25.9242 17.187L13.41 8.65506M25.9242 17.1871L13.4099 8.65513" stroke="#141B34" stroke-width="4"/>
<path d="M25.9703 24.0001L13.4561 32.5321M25.9703 24.0001L13.4561 32.532" stroke="#141B34" stroke-width="4"/>
</svg>
