<svg width="45" height="45" viewBox="0 0 45 45" fill="none" xmlns="http://www.w3.org/2000/svg">
<path d="M14.0625 16.875C15.6158 16.875 16.875 15.6158 16.875 14.0625C16.875 12.5092 15.6158 11.25 14.0625 11.25C12.5092 11.25 11.25 12.5092 11.25 14.0625C11.25 15.6158 12.5092 16.875 14.0625 16.875Z" stroke="#141B34" stroke-width="4" stroke-linecap="round" stroke-linejoin="round"/>
<path d="M4.6875 22.5C4.6875 14.1031 4.6875 9.90467 7.29607 7.29607C9.90467 4.6875 14.1031 4.6875 22.5 4.6875C30.8968 4.6875 35.0953 4.6875 37.704 7.29607C40.3125 9.90467 40.3125 14.1031 40.3125 22.5C40.3125 30.8968 40.3125 35.0953 37.704 37.704C35.0953 40.3125 30.8968 40.3125 22.5 40.3125C14.1031 40.3125 9.90467 40.3125 7.29607 37.704C4.6875 35.0953 4.6875 30.8968 4.6875 22.5Z" stroke="#141B34" stroke-width="4"/>
<path d="M9.375 39.3749C17.5734 29.578 26.7639 16.6575 40.3078 25.3919" stroke="#141B34" stroke-width="4"/>
</svg>
