<svg width="45" height="45" viewBox="0 0 45 45" fill="none" xmlns="http://www.w3.org/2000/svg">
<path d="M13.125 17.8125C14.6783 17.8125 15.9375 16.5533 15.9375 15C15.9375 13.4467 14.6783 12.1875 13.125 12.1875C11.5717 12.1875 10.3125 13.4467 10.3125 15C10.3125 16.5533 11.5717 17.8125 13.125 17.8125Z" stroke="#141B34" stroke-width="4" stroke-linecap="round" stroke-linejoin="round"/>
<path d="M39.3707 20.625C39.375 21.5064 39.375 22.4424 39.375 23.4375C39.375 31.8343 39.375 36.0328 36.7665 38.6415C34.1578 41.25 29.9593 41.25 21.5625 41.25C13.1656 41.25 8.96717 41.25 6.35857 38.6415C3.75 36.0328 3.75 31.8343 3.75 23.4375C3.75 15.0406 3.75 10.8422 6.35857 8.23358C8.96717 5.625 13.1656 5.625 21.5625 5.625C22.5576 5.625 23.4936 5.625 24.375 5.62933" stroke="#141B34" stroke-width="4" stroke-linecap="round"/>
<path d="M34.6875 3.75L35.1711 5.05693C35.8052 6.77066 36.1223 7.62754 36.7474 8.25261C37.3725 8.87769 38.2294 9.19476 39.9431 9.8289L41.25 10.3125L39.9431 10.7961C38.2294 11.4302 37.3725 11.7473 36.7474 12.3724C36.1223 12.9975 35.8052 13.8543 35.1711 15.5681L34.6875 16.875L34.2039 15.5681C33.5698 13.8543 33.2527 12.9975 32.6276 12.3724C32.0025 11.7473 31.1456 11.4302 29.4319 10.7961L28.125 10.3125L29.4319 9.8289C31.1456 9.19476 32.0025 8.87769 32.6276 8.25261C33.2527 7.62754 33.5698 6.77066 34.2039 5.05693L34.6875 3.75Z" stroke="#141B34" stroke-width="4" stroke-linejoin="round"/>
<path d="M8.4375 40.3124C16.6359 30.5155 25.8264 17.595 39.3703 26.3294" stroke="#141B34" stroke-width="4"/>
</svg>
