<svg width="45" height="45" viewBox="0 0 45 45" fill="none" xmlns="http://www.w3.org/2000/svg">
<path d="M13.125 18.7504V7.40431C13.125 6.3271 13.125 5.78849 12.693 5.65445C11.7432 5.35977 10.3125 7.49977 10.3125 7.49977M13.125 18.7504H10.3125M13.125 18.7504H15.9375" stroke="#141B34" stroke-width="4" stroke-linecap="round" stroke-linejoin="round"/>
<path d="M16.875 32.8125V29.5312C16.875 27.9844 16.875 27.2111 16.3258 26.7306C15.7766 26.25 14.8928 26.25 13.125 26.25C11.3572 26.25 10.4734 26.25 9.92417 26.7306C9.375 27.2111 9.375 27.9844 9.375 29.5312C9.375 31.0781 9.375 31.8514 9.92417 32.3319C10.4734 32.8125 11.3572 32.8125 13.125 32.8125H16.875ZM16.875 32.8125V34.4531C16.875 36.7733 16.875 37.9335 16.0512 38.6543C15.2275 39.375 13.9016 39.375 11.25 39.375H9.375" stroke="#141B34" stroke-width="4" stroke-linecap="round" stroke-linejoin="round"/>
<path d="M30.9375 37.5V7.5M30.9375 37.5C29.6246 37.5 27.1716 33.7607 26.25 32.8125M30.9375 37.5C32.2504 37.5 34.7034 33.7607 35.625 32.8125" stroke="#141B34" stroke-width="4" stroke-linecap="round" stroke-linejoin="round"/>
</svg>
