<svg width="45" height="45" viewBox="0 0 45 45" fill="none" xmlns="http://www.w3.org/2000/svg">
<path d="M3.75 36.5625C3.75 34.3528 3.75 33.2479 4.57376 32.5614C5.39753 31.875 6.72336 31.875 9.375 31.875C12.0266 31.875 13.3525 31.875 14.1762 32.5614C15 33.2479 15 34.3528 15 36.5625C15 38.7722 15 39.8771 14.1762 40.5636C13.3525 41.25 12.0266 41.25 9.375 41.25C6.72336 41.25 5.39753 41.25 4.57376 40.5636C3.75 39.8771 3.75 38.7722 3.75 36.5625Z" stroke="#141B34" stroke-width="4"/>
<path d="M30 36.5625C30 34.3528 30 33.2479 30.8237 32.5614C31.6476 31.875 32.9734 31.875 35.625 31.875C38.2766 31.875 39.6024 31.875 40.4263 32.5614C41.25 33.2479 41.25 34.3528 41.25 36.5625C41.25 38.7722 41.25 39.8771 40.4263 40.5636C39.6024 41.25 38.2766 41.25 35.625 41.25C32.9734 41.25 31.6476 41.25 30.8237 40.5636C30 39.8771 30 38.7722 30 36.5625Z" stroke="#141B34" stroke-width="4"/>
<path d="M35.625 31.875C35.625 27.2212 34.2304 26.25 27.5481 26.25H17.4519C10.7696 26.25 9.375 27.2212 9.375 31.875" stroke="#141B34" stroke-width="4" stroke-linecap="round" stroke-linejoin="round"/>
<path d="M22.5 12.1875L24.375 9.375M30.9375 12.1875C30.9375 16.8474 27.1599 20.625 22.5 20.625C17.8401 20.625 14.0625 16.8474 14.0625 12.1875C14.0625 7.5276 17.8401 3.75 22.5 3.75C27.1599 3.75 30.9375 7.5276 30.9375 12.1875Z" stroke="#141B34" stroke-width="4" stroke-linecap="round"/>
</svg>
