<svg width="45" height="45" viewBox="0 0 45 45" fill="none" xmlns="http://www.w3.org/2000/svg">
<path d="M22.5 41.25C32.8553 41.25 41.25 32.8553 41.25 22.5C41.25 12.1447 32.8553 3.75 22.5 3.75C12.1447 3.75 3.75 12.1447 3.75 22.5C3.75 32.8553 12.1447 41.25 22.5 41.25Z" stroke="#141B34" stroke-width="4"/>
<path d="M13.125 15.7112H21.5625M21.5625 15.7112H27.1875M21.5625 15.7112V13.125M31.875 15.7112H27.1875M27.1875 15.7112C26.1984 19.248 24.1273 22.5913 21.7633 25.5296M21.7633 25.5296C19.8058 27.9626 17.6476 30.1177 15.7366 31.875M21.7633 25.5296C20.5581 24.1164 18.8706 21.8299 18.3884 20.7954M21.7633 25.5296L25.3794 29.2888" stroke="#141B34" stroke-width="4" stroke-linecap="round" stroke-linejoin="round"/>
</svg>
