<svg width="45" height="45" viewBox="0 0 45 45" fill="none" xmlns="http://www.w3.org/2000/svg">
<path d="M40.3125 22.5C40.3125 25.0888 38.2138 27.1875 35.625 27.1875C33.0362 27.1875 30.9375 25.0888 30.9375 22.5C30.9375 19.9112 33.0362 17.8125 35.625 17.8125C38.2138 17.8125 40.3125 19.9112 40.3125 22.5Z" stroke="#141B34" stroke-width="4"/>
<path d="M25.3125 7.5C25.3125 9.05331 24.0533 10.3125 22.5 10.3125C20.9467 10.3125 19.6875 9.05331 19.6875 7.5C19.6875 5.94669 20.9467 4.6875 22.5 4.6875C24.0533 4.6875 25.3125 5.94669 25.3125 7.5Z" stroke="#141B34" stroke-width="4"/>
<path d="M23.4375 21.5625C23.4375 23.1158 22.1783 24.375 20.625 24.375C19.0717 24.375 17.8125 23.1158 17.8125 21.5625C17.8125 20.0092 19.0717 18.75 20.625 18.75C22.1783 18.75 23.4375 20.0092 23.4375 21.5625Z" stroke="#141B34" stroke-width="4"/>
<path d="M12.1875 14.0625C12.1875 16.1336 10.5086 17.8125 8.4375 17.8125C6.36643 17.8125 4.6875 16.1336 4.6875 14.0625C4.6875 11.9914 6.36643 10.3125 8.4375 10.3125C10.5086 10.3125 12.1875 11.9914 12.1875 14.0625Z" stroke="#141B34" stroke-width="4"/>
<path d="M19.6875 36.5625C19.6875 38.6336 18.0086 40.3125 15.9375 40.3125C13.8664 40.3125 12.1875 38.6336 12.1875 36.5625C12.1875 34.4914 13.8664 32.8125 15.9375 32.8125C18.0086 32.8125 19.6875 34.4914 19.6875 36.5625Z" stroke="#141B34" stroke-width="4"/>
<path d="M25.3125 9.375L32.8125 18.75M27.1875 29.0625L19.6875 34.6875M15 32.8125L9.375 17.8125M11.8368 12.4768L19.6875 8.4375M23.4375 21.5625L30.9469 22.2081" stroke="#141B34" stroke-width="4" stroke-linecap="round" stroke-linejoin="round"/>
<path d="M22.5 10.3125L20.625 18.75" stroke="#141B34" stroke-width="4" stroke-linecap="round" stroke-linejoin="round"/>
</svg>
