<svg width="45" height="45" viewBox="0 0 45 45" fill="none" xmlns="http://www.w3.org/2000/svg">
<path d="M39.8531 13.3755L38.9276 11.7693C38.2277 10.5547 37.8778 9.94733 37.2823 9.70513C35.9511 9.16374 33.7043 10.3073 32.3786 10.6807C31.2036 10.9517 30.1948 10.5727 29.1998 9.99864C28.5264 9.56741 28.0086 8.9316 27.7219 8.18424C27.3202 6.98447 27.0506 4.87118 25.9881 4.10393C25.4981 3.75 24.8471 3.75 23.5451 3.75H21.4549C20.1531 3.75 19.5021 3.75 19.0119 4.10393C17.9495 4.87123 17.6799 6.98451 17.2782 8.18424C16.8797 9.22322 16.0913 9.83081 15.1687 10.3631C14.3836 10.7665 13.4814 10.879 12.6215 10.6807C11.296 10.3073 9.04903 9.16373 7.71782 9.70513C7.12235 9.94733 6.7724 10.5547 6.07247 11.7693L5.147 13.3755C4.49092 14.5141 4.16287 15.0834 4.22655 15.6894C4.38467 17.1949 6.57671 18.8439 7.54087 19.9219C8.01337 20.52 8.34883 21.5625 8.34883 22.4998C8.34883 23.4375 8.01349 24.4796 7.54093 25.0779C6.57669 26.1559 4.38468 27.8049 4.22655 29.3105C4.16287 29.9165 4.49092 30.4858 5.147 31.6243L6.07245 33.2304C6.77237 34.445 7.12235 35.0525 7.71782 35.2946C9.04894 35.8361 11.296 34.6924 12.6214 34.319C14.4625 33.8944 16.6003 35.0482 17.2781 36.8156C17.6799 38.0154 17.9495 40.1287 19.0119 40.8962C19.5021 41.25 20.1531 41.25 21.4549 41.25H23.5451C24.8471 41.25 25.4981 41.25 25.9881 40.8962C26.4782 40.5422 26.6841 39.9234 27.0958 38.6859C27.5597 37.3003 27.8848 35.8434 29.1996 35.0014C30.1946 34.427 31.2034 34.0479 32.3786 34.319C33.7041 34.6924 35.9511 35.8361 37.2823 35.2946C37.8778 35.0525 38.2277 34.445 38.9276 33.2304L39.8531 31.6243C40.5092 30.4858 40.8371 29.9165 40.7736 29.3105C40.6151 27.8049 38.4234 26.156 37.4591 25.0779C36.3666 23.6945 36.3668 21.3052 37.4591 19.9219C38.4234 18.8439 40.6151 17.195 40.7736 15.6894C40.8371 15.0834 40.5092 14.5141 39.8531 13.3755Z" stroke="#141B34" stroke-width="4" stroke-linecap="round"/>
<path d="M13.9453 28.1104L17.3989 17.7497C17.5759 17.2186 18.0729 16.8604 18.6328 16.8604C19.1927 16.8604 19.6898 17.2186 19.8668 17.7497L23.3203 28.1104M15.8203 24.3604H21.4453" stroke="#141B34" stroke-width="4" stroke-linecap="round" stroke-linejoin="round"/>
<path d="M28.9453 16.8604V28.1104" stroke="#141B34" stroke-width="4" stroke-linecap="round" stroke-linejoin="round"/>
</svg>
