<svg width="45" height="45" viewBox="0 0 45 45" fill="none" xmlns="http://www.w3.org/2000/svg">
<path d="M15 13.125H30" stroke="#141B34" stroke-width="4" stroke-linecap="round" stroke-linejoin="round"/>
<path d="M15 20.625H22.5" stroke="#141B34" stroke-width="4" stroke-linecap="round" stroke-linejoin="round"/>
<path d="M24.375 40.3125V39.375C24.375 34.0718 24.375 31.4201 26.0226 29.7726C27.6701 28.125 30.3218 28.125 35.625 28.125H36.5625M37.5 25.0183V18.75C37.5 11.6789 37.5 8.14341 35.3032 5.94669C33.1067 3.75 29.571 3.75 22.5 3.75C15.4289 3.75 11.8934 3.75 9.69669 5.94669C7.5 8.14339 7.5 11.6789 7.5 18.75V27.2704C7.5 33.3547 7.5 36.3969 9.16138 38.4576C9.49702 38.8738 9.87621 39.2529 10.2925 39.5886C12.3531 41.25 15.3953 41.25 21.4796 41.25C22.8026 41.25 23.4639 41.25 24.0698 41.0362C24.1958 40.9918 24.3191 40.9406 24.4397 40.8831C25.0193 40.6058 25.4869 40.1381 26.4223 39.2027L35.3032 30.3218C36.3872 29.2378 36.9291 28.6959 37.2146 28.0067C37.5 27.3176 37.5 26.5511 37.5 25.0183Z" stroke="#141B34" stroke-width="4" stroke-linecap="round" stroke-linejoin="round"/>
</svg>
