<svg width="45" height="45" viewBox="0 0 45 45" fill="none" xmlns="http://www.w3.org/2000/svg">
<path d="M4.23009 29.3104C4.29376 28.7044 4.73291 28.2159 5.61121 27.2393L7.54447 25.0779C8.01702 24.4796 8.35237 23.4375 8.35237 22.4996C8.35237 21.5625 8.01691 20.52 7.54441 19.9219L5.61121 17.7606C4.73291 16.7838 4.29374 16.2954 4.23009 15.6894C4.16641 15.0834 4.49446 14.5141 5.15054 13.3755L6.07601 11.7693C6.77594 10.5547 7.12589 9.94731 7.72136 9.70513C8.31682 9.46294 8.99024 9.65406 10.3371 10.0363L12.6251 10.6807C13.485 10.879 14.3871 10.7665 15.1723 10.3631L15.8039 9.99864C16.4772 9.56741 16.9951 8.9316 17.2817 8.18424L17.9079 6.31414C18.3196 5.07662 18.5254 4.45785 19.0155 4.10393C19.5056 3.75 20.1566 3.75 21.4584 3.75H23.5486C24.8506 3.75 25.5016 3.75 25.9916 4.10393C26.4817 4.45785 26.6876 5.07662 27.0993 6.31414L27.7254 8.18424C28.0121 8.9316 28.53 9.56741 29.2033 9.99864L29.835 10.3631C30.62 10.7665 31.5223 10.879 32.3821 10.6807L34.67 10.0363C36.0168 9.65406 36.6903 9.46294 37.2858 9.70513C37.8813 9.94731 38.2312 10.5547 38.9311 11.7693L39.8566 13.3755C40.5127 14.5141 40.8406 15.0834 40.7771 15.6894C40.7133 16.2954 40.2742 16.7838 39.396 17.7606L37.4626 19.9219C36.9903 20.52 36.6547 21.5625 36.6547 22.4996C36.6547 23.4375 36.9901 24.4796 37.4626 25.0779L39.396 27.2393C40.2742 28.2159 40.7133 28.7044 40.7771 29.3104C40.8406 29.9166 40.5127 30.4858 39.8566 31.6243L38.9311 33.2304C38.2312 34.4451 37.8813 35.0526 37.2858 35.2946C36.6903 35.5369 36.0168 35.3458 34.67 34.9635L32.3821 34.3191C31.5221 34.1207 30.6198 34.2334 29.8346 34.6369L29.2031 35.0014C28.5298 35.4326 28.0121 36.0683 27.7256 36.8156L27.0993 38.6859C26.6876 39.9234 26.4817 40.5422 25.9916 40.896C25.5016 41.25 24.8506 41.25 23.5486 41.25H21.4584C20.1566 41.25 19.5056 41.25 19.0155 40.896C18.5254 40.5422 18.3196 39.9234 17.9079 38.6859" stroke="#141B34" stroke-width="4" stroke-linecap="round"/>
<path d="M5.13179 35.2121C7.15679 33.1871 14.0418 26.3696 14.7168 25.5821C15.4304 24.7496 14.8518 23.6246 15.196 20.1371C15.3626 18.4496 15.7256 17.1854 16.7643 16.2446C18.0018 15.0746 19.0144 15.0746 22.5019 14.9959C25.5394 15.0746 25.8994 14.7371 26.2144 15.5246C26.4394 16.0871 25.7644 16.4246 24.9544 17.3246C23.1544 19.1246 22.0969 20.0246 21.9956 20.5871C21.2644 23.0621 24.1444 24.5246 25.7194 22.9496C26.3149 22.3539 29.0719 19.5746 29.3419 19.3496C29.5444 19.1696 30.0291 19.1783 30.2644 19.4621C30.4669 19.6611 30.4894 19.6871 30.4669 20.5871C30.4461 21.4202 30.4552 22.6163 30.4579 23.8496C30.4611 25.4477 30.3769 27.2246 29.7019 28.1246C28.3519 30.1496 26.1019 30.2621 24.0769 30.3521C22.1644 30.4646 20.5894 30.2621 20.0944 30.6221C19.6894 30.8246 17.5518 33.0746 14.9643 35.6621L10.3518 40.2746C6.52679 43.3121 2.31929 38.5871 5.13179 35.2121Z" stroke="#141B34" stroke-width="4" stroke-linecap="round"/>
</svg>
