<svg width="49" height="49" viewBox="0 0 49 49" fill="none" xmlns="http://www.w3.org/2000/svg">
<path d="M5 25.3958C5 16.2526 5 11.6809 7.84045 8.84045C10.6809 6 15.2526 6 24.3958 6C33.539 6 38.1107 6 40.9513 8.84045C43.7917 11.6809 43.7917 16.2526 43.7917 25.3958C43.7917 34.539 43.7917 39.1107 40.9513 41.9513C38.1107 44.7917 33.539 44.7917 24.3958 44.7917C15.2526 44.7917 10.6809 44.7917 7.84045 41.9513C5 39.1107 5 34.539 5 25.3958Z" stroke="#141B34" stroke-width="4"/>
<path d="M43.3125 25.5C43.3125 28.0888 41.2138 30.1875 38.625 30.1875C36.0362 30.1875 33.9375 28.0888 33.9375 25.5C33.9375 22.9112 36.0362 20.8125 38.625 20.8125C41.2138 20.8125 43.3125 22.9112 43.3125 25.5Z" stroke="#141B34" stroke-width="4"/>
<path d="M28.3125 10.5C28.3125 12.0533 27.0533 13.3125 25.5 13.3125C23.9467 13.3125 22.6875 12.0533 22.6875 10.5C22.6875 8.94669 23.9467 7.6875 25.5 7.6875C27.0533 7.6875 28.3125 8.94669 28.3125 10.5Z" stroke="#141B34" stroke-width="4"/>
<path d="M26.4375 24.5625C26.4375 26.1158 25.1783 27.375 23.625 27.375C22.0717 27.375 20.8125 26.1158 20.8125 24.5625C20.8125 23.0092 22.0717 21.75 23.625 21.75C25.1783 21.75 26.4375 23.0092 26.4375 24.5625Z" stroke="#141B34" stroke-width="4"/>
<path d="M15.1875 17.0625C15.1875 19.1336 13.5086 20.8125 11.4375 20.8125C9.36643 20.8125 7.6875 19.1336 7.6875 17.0625C7.6875 14.9914 9.36643 13.3125 11.4375 13.3125C13.5086 13.3125 15.1875 14.9914 15.1875 17.0625Z" stroke="#141B34" stroke-width="4"/>
<path d="M22.6875 39.5625C22.6875 41.6336 21.0086 43.3125 18.9375 43.3125C16.8664 43.3125 15.1875 41.6336 15.1875 39.5625C15.1875 37.4914 16.8664 35.8125 18.9375 35.8125C21.0086 35.8125 22.6875 37.4914 22.6875 39.5625Z" stroke="#141B34" stroke-width="4"/>
<path d="M28.3125 12.375L35.8125 21.75M30.1875 32.0625L22.6875 37.6875M18 35.8125L12.375 20.8125M14.8368 15.4768L22.6875 11.4375M26.4375 24.5625L33.9469 25.2081" stroke="#141B34" stroke-width="4" stroke-linecap="round" stroke-linejoin="round"/>
<path d="M25.5 13.3125L23.625 21.75" stroke="#141B34" stroke-width="4" stroke-linecap="round" stroke-linejoin="round"/>
</svg>
