<svg width="45" height="45" viewBox="0 0 45 45" fill="none" xmlns="http://www.w3.org/2000/svg">
<path d="M34.9052 37.5H35.8243C37.9802 37.5 39.6951 36.5177 41.2348 35.1443C45.1462 31.6549 35.9514 28.125 32.8125 28.125M29.0625 9.50394C29.4883 9.41949 29.9304 9.375 30.384 9.375C33.7963 9.375 36.5625 11.8934 36.5625 15C36.5625 18.1066 33.7963 20.625 30.384 20.625C29.9304 20.625 29.4883 20.5806 29.0625 20.496" stroke="#141B34" stroke-width="4" stroke-linecap="round"/>
<path d="M8.40246 30.2085C6.19189 31.3931 0.395885 33.8121 3.92603 36.8389C5.65048 38.3175 7.57108 39.375 9.98573 39.375H23.7643C26.1789 39.375 28.0995 38.3175 29.8239 36.8389C33.3542 33.8121 27.5582 31.3931 25.3476 30.2085C20.1638 27.4305 13.5862 27.4305 8.40246 30.2085Z" stroke="#141B34" stroke-width="4"/>
<path d="M24.375 14.0625C24.375 18.2046 21.0171 21.5625 16.875 21.5625C12.7329 21.5625 9.375 18.2046 9.375 14.0625C9.375 9.92036 12.7329 6.5625 16.875 6.5625C21.0171 6.5625 24.375 9.92036 24.375 14.0625Z" stroke="#141B34" stroke-width="4"/>
</svg>
